<svg width="430" height="380" viewBox="0 0 430 380" fill="none" xmlns="http://www.w3.org/2000/svg">
<g filter="url(#filter0_d_55_612)">
<rect x="9" y="58" width="374" height="298" rx="20" fill="white"/>
<rect x="76.6299" y="4.9541" width="352.919" height="310.736" rx="20" transform="rotate(10.1257 76.6299 4.9541)" fill="#C9E1FE"/>
<circle cx="270.498" cy="150.5" r="9.5" fill="#0F16AA"/>
<rect x="267.775" y="159" width="3.08589" height="85.4553" transform="rotate(4.54827 267.775 159)" fill="#0F16AA"/>
<rect x="158.775" y="157" width="3" height="62.435" transform="rotate(4.54827 158.775 157)" fill="#0F16AA"/>
<rect opacity="0.21" x="219.517" y="167.428" width="3" height="54.4692" transform="rotate(4.54827 219.517 167.428)" fill="#0F16AA"/>
<rect opacity="0.21" x="212.011" y="170.855" width="3" height="46.7347" transform="rotate(4.54827 212.011 170.855)" fill="#0F16AA"/>
<rect opacity="0.21" x="243.012" y="172" width="3" height="46.7347" transform="rotate(4.55 243.012 172)" fill="#0F16AA"/>
<rect opacity="0.21" x="204.109" y="178.479" width="3" height="29.883" transform="rotate(4.54827 204.109 178.479)" fill="#0F16AA"/>
<rect opacity="0.21" x="235.405" y="175.913" width="3" height="39.3593" transform="rotate(4.55 235.405 175.913)" fill="#0F16AA"/>
<rect opacity="0.21" x="249.489" y="184.936" width="3" height="23.4367" transform="rotate(4.55 249.489 184.936)" fill="#0F16AA"/>
<rect opacity="0.21" x="256.429" y="190.108" width="3" height="14.9266" transform="rotate(4.55 256.429 190.108)" fill="#0F16AA"/>
<rect opacity="0.21" x="272.479" y="197" width="3" height="6.05798" transform="rotate(4.55 272.479 197)" fill="#0F16AA"/>
<rect opacity="0.21" x="279.998" y="197" width="3" height="6.05798" transform="rotate(4.55 279.998 197)" fill="#0F16AA"/>
<rect opacity="0.21" x="286.998" y="198" width="3" height="6.05798" transform="rotate(4.55 286.998 198)" fill="#0F16AA"/>
<rect opacity="0.21" x="293.998" y="198" width="3" height="6.05798" transform="rotate(4.55 293.998 198)" fill="#0F16AA"/>
<rect opacity="0.21" x="300.998" y="199" width="3" height="6.05798" transform="rotate(4.55 300.998 199)" fill="#0F16AA"/>
<rect opacity="0.21" x="307.998" y="200" width="3" height="6.05798" transform="rotate(4.55 307.998 200)" fill="#0F16AA"/>
<rect opacity="0.21" x="314.998" y="201" width="3" height="6.05798" transform="rotate(4.55 314.998 201)" fill="#0F16AA"/>
<rect opacity="0.21" x="321.998" y="201" width="3" height="6.05798" transform="rotate(4.55 321.998 201)" fill="#0F16AA"/>
<rect opacity="0.21" x="328.998" y="202" width="3" height="6.05798" transform="rotate(4.55 328.998 202)" fill="#0F16AA"/>
<rect opacity="0.21" x="335.998" y="202" width="3" height="6.05798" transform="rotate(4.55 335.998 202)" fill="#0F16AA"/>
<rect opacity="0.21" x="342.998" y="203" width="3" height="6.05798" transform="rotate(4.55 342.998 203)" fill="#0F16AA"/>
<rect opacity="0.21" x="349.998" y="203" width="3" height="6.05798" transform="rotate(4.55 349.998 203)" fill="#0F16AA"/>
<rect opacity="0.21" x="195.232" y="185" width="3" height="15.5664" transform="rotate(4.54827 195.232 185)" fill="#0F16AA"/>
<rect opacity="0.21" x="226.233" y="186.145" width="3" height="17.9175" transform="rotate(4.55 226.233 186.145)" fill="#0F16AA"/>
<rect opacity="0.21" x="187.708" y="187" width="3" height="8.95697" transform="rotate(4.54827 187.708 187)" fill="#0F16AA"/>
<rect opacity="0.21" x="179.979" y="182.594" width="3" height="15.7913" transform="rotate(4.54827 179.979 182.594)" fill="#0F16AA"/>
<rect x="165.907" y="170.091" width="3" height="38.7935" transform="rotate(4.54827 165.907 170.091)" fill="#0F16AA"/>
<rect width="3" height="47.0611" transform="matrix(-0.996849 -0.079329 -0.079329 0.996849 153.865 165.238)" fill="#0F16AA"/>
<rect x="172.707" y="186" width="3" height="8.93414" transform="rotate(4.54827 172.707 186)" fill="#0F16AA"/>
<rect width="3" height="11.2858" transform="matrix(-0.996849 -0.079329 -0.079329 0.996849 144.697 181.147)" fill="#0F16AA"/>
<rect width="3" height="24.8798" transform="matrix(-0.996849 -0.079329 -0.079329 0.996849 137.423 174.371)" fill="#0F16AA"/>
<rect width="3" height="36.69" transform="matrix(-0.996849 -0.079329 -0.079329 0.996849 130.431 167.352)" fill="#0F16AA"/>
<rect width="3" height="36.69" transform="matrix(-0.996849 -0.079329 -0.079329 0.996849 84.9014 164.238)" fill="#0F16AA"/>
<rect width="3" height="68.5459" transform="matrix(-0.996849 -0.079329 -0.079329 0.996849 116.138 150.67)" fill="#0F16AA"/>
<rect width="3" height="74.3157" transform="matrix(-0.996849 -0.079329 -0.079329 0.996849 93.4285 145.238)" fill="#0F16AA"/>
<rect width="3" height="55.1779" transform="matrix(-0.996849 -0.079329 -0.079329 0.996849 107.898 156.901)" fill="#0F16AA"/>
<rect width="3" height="58.6615" transform="matrix(-0.996849 -0.079329 -0.079329 0.996849 100.644 153.765)" fill="#0F16AA"/>
<rect width="3" height="19.4705" transform="matrix(-0.996849 -0.079329 -0.079329 0.996849 122.216 176.821)" fill="#0F16AA"/>
</g>
<defs>
<filter id="filter0_d_55_612" x="0" y="0.155273" width="429.851" height="379.539" filterUnits="userSpaceOnUse" color-interpolation-filters="sRGB">
<feFlood flood-opacity="0" result="BackgroundImageFix"/>
<feColorMatrix in="SourceAlpha" type="matrix" values="0 0 0 0 0 0 0 0 0 0 0 0 0 0 0 0 0 0 127 0" result="hardAlpha"/>
<feOffset dy="1"/>
<feGaussianBlur stdDeviation="4.5"/>
<feComposite in2="hardAlpha" operator="out"/>
<feColorMatrix type="matrix" values="0 0 0 0 0 0 0 0 0 0 0 0 0 0 0 0 0 0 0.05 0"/>
<feBlend mode="normal" in2="BackgroundImageFix" result="effect1_dropShadow_55_612"/>
<feBlend mode="normal" in="SourceGraphic" in2="effect1_dropShadow_55_612" result="shape"/>
</filter>
</defs>
</svg>
